<?xml version="1.0" standalone="no"?>
<!DOCTYPE svg PUBLIC "-//W3C//DTD SVG 20010904//EN"
 "http://www.w3.org/TR/2001/REC-SVG-20010904/DTD/svg10.dtd">
<svg version="1.0" xmlns="http://www.w3.org/2000/svg"
 width="1736.000000pt" height="1736.000000pt" viewBox="0 0 1736.000000 1736.000000"
 preserveAspectRatio="xMidYMid meet">
<metadata>
Created by potrace 1.14, written by Peter Selinger 2001-2017
</metadata>
<g transform="translate(0.000000,1736.000000) scale(0.100000,-0.100000)"
fill="#000000" stroke="none">
<path d="M11230 15274 c-395 -23 -663 -49 -1065 -105 -1212 -168 -2380 -478
-3531 -937 -271 -108 -895 -394 -1053 -481 -935 -520 -1295 -749 -1846 -1180
-1046 -816 -1841 -1734 -2413 -2786 -74 -137 -213 -435 -289 -620 -240 -582
-389 -1250 -419 -1865 -7 -158 10 -586 31 -779 58 -523 192 -1003 415 -1494
146 -324 230 -475 385 -697 275 -393 480 -631 749 -873 420 -378 866 -659
1415 -892 501 -213 1084 -352 1755 -421 213 -21 783 -30 1031 -15 1193 72
2294 351 3504 887 312 139 399 184 866 454 1124 648 2161 1449 3070 2371 741
752 1291 1434 1819 2256 243 380 536 926 708 1323 96 223 259 659 305 815 102
353 182 754 218 1093 6 58 6 62 -12 55 -10 -3 -38 -22 -63 -42 -25 -20 -52
-40 -61 -46 -9 -5 -48 -35 -85 -66 -38 -30 -94 -73 -124 -94 -30 -21 -79 -57
-109 -79 -29 -23 -72 -55 -95 -71 -112 -82 -224 -166 -255 -192 -19 -15 -39
-30 -45 -33 -6 -3 -55 -39 -110 -80 -54 -41 -105 -79 -114 -85 -9 -5 -57 -41
-108 -80 -51 -38 -125 -92 -164 -120 -39 -27 -93 -66 -120 -85 -27 -19 -86
-62 -131 -95 -114 -84 -207 -151 -254 -184 -22 -15 -65 -45 -95 -66 -30 -21
-73 -51 -95 -66 -22 -15 -49 -37 -59 -48 -11 -12 -23 -21 -28 -21 -5 0 -36
-22 -71 -48 -66 -51 -137 -101 -165 -117 -10 -5 -36 -25 -59 -42 -22 -18 -45
-33 -51 -33 -6 0 -37 -22 -69 -50 -32 -27 -64 -50 -70 -50 -7 0 -30 -16 -52
-35 -21 -19 -43 -35 -48 -35 -5 0 -33 -17 -61 -37 -28 -21 -74 -54 -102 -73
-28 -19 -79 -55 -113 -80 -34 -25 -73 -51 -87 -58 -14 -6 -52 -32 -85 -56 -33
-25 -63 -45 -68 -45 -8 -1 -94 -60 -148 -102 -20 -16 -40 -29 -43 -29 -3 0
-46 -28 -96 -62 -50 -35 -98 -67 -108 -73 -9 -5 -56 -37 -104 -70 -49 -33 -96
-64 -106 -70 -9 -5 -43 -28 -75 -50 -32 -22 -70 -46 -85 -54 -15 -8 -47 -29
-71 -48 -24 -18 -48 -33 -53 -33 -6 0 -27 -13 -48 -30 -21 -16 -42 -30 -47
-30 -6 0 -40 -22 -76 -50 -36 -28 -70 -50 -75 -50 -5 0 -30 -16 -55 -35 -25
-19 -50 -35 -55 -35 -10 0 -89 -50 -190 -119 -29 -20 -65 -42 -80 -50 -15 -8
-43 -27 -63 -42 -20 -16 -41 -29 -47 -29 -5 0 -33 -16 -62 -35 -29 -19 -54
-35 -57 -35 -3 0 -26 -15 -52 -33 -25 -18 -57 -38 -71 -45 -14 -7 -37 -20 -52
-30 -34 -22 -181 -112 -222 -135 -17 -10 -44 -26 -61 -37 -16 -11 -43 -27 -60
-35 -16 -9 -43 -24 -60 -35 -16 -11 -43 -26 -60 -35 -30 -16 -38 -20 -110 -66
-22 -13 -51 -30 -65 -37 -14 -7 -38 -21 -55 -32 -16 -11 -46 -27 -65 -36 -19
-9 -48 -26 -65 -39 -16 -12 -41 -25 -53 -30 -13 -4 -43 -19 -65 -33 -23 -15
-51 -33 -62 -40 -11 -7 -31 -18 -45 -25 -14 -7 -44 -25 -67 -40 -24 -15 -47
-27 -52 -27 -5 0 -32 -15 -60 -34 -28 -19 -65 -39 -83 -46 -18 -6 -46 -20 -63
-31 -16 -10 -48 -28 -70 -39 -22 -10 -62 -33 -90 -49 -27 -17 -77 -44 -110
-61 -33 -17 -67 -35 -75 -40 -8 -6 -26 -15 -40 -20 -14 -6 -38 -19 -55 -30
-16 -11 -37 -23 -45 -26 -30 -13 -115 -55 -130 -64 -8 -5 -40 -21 -70 -35 -75
-36 -172 -84 -190 -95 -15 -9 -48 -25 -150 -74 -30 -15 -62 -30 -70 -35 -8 -5
-49 -25 -90 -44 -41 -19 -127 -60 -192 -91 -64 -31 -123 -56 -131 -56 -9 0
-18 -4 -22 -9 -6 -10 -108 -61 -121 -61 -4 0 -35 -13 -68 -29 -34 -16 -81 -38
-106 -49 -39 -18 -66 -29 -165 -72 -11 -4 -40 -17 -65 -28 -25 -11 -66 -30
-92 -41 -26 -12 -52 -21 -58 -21 -7 0 -24 -7 -38 -15 -41 -22 -120 -55 -132
-55 -10 0 -45 -14 -137 -56 -17 -8 -37 -14 -45 -14 -7 -1 -31 -9 -53 -20 -22
-11 -46 -19 -53 -20 -7 0 -20 -4 -30 -10 -33 -18 -111 -50 -124 -50 -7 -1 -31
-9 -53 -20 -22 -11 -48 -19 -57 -20 -9 0 -19 -4 -22 -9 -3 -5 -30 -14 -58 -21
-29 -6 -67 -18 -85 -26 -17 -8 -38 -14 -46 -14 -9 0 -18 -4 -21 -9 -3 -5 -30
-14 -58 -21 -29 -6 -67 -18 -85 -26 -17 -8 -38 -14 -46 -14 -9 0 -18 -4 -22
-9 -3 -5 -31 -15 -63 -21 -31 -7 -62 -16 -67 -21 -6 -4 -29 -13 -50 -18 -22
-6 -65 -18 -95 -27 -30 -9 -80 -23 -110 -30 -68 -18 -154 -43 -200 -59 -19 -7
-57 -16 -85 -19 -27 -4 -70 -14 -95 -21 -85 -26 -155 -43 -200 -50 -25 -4 -70
-12 -100 -20 -58 -14 -168 -37 -260 -55 -30 -6 -104 -17 -165 -25 -60 -8 -119
-17 -130 -20 -35 -10 -224 -35 -405 -52 -250 -24 -1174 -24 -1365 0 -214 27
-316 65 -400 151 -78 81 -95 124 -95 240 0 100 2 106 62 235 29 61 182 217
320 328 65 51 120 93 123 93 4 0 18 14 32 30 13 17 29 30 35 30 6 0 39 24 74
53 34 28 84 68 110 87 27 19 67 51 91 70 23 19 63 51 88 70 25 19 73 58 105
85 99 83 132 110 145 115 7 3 51 35 96 73 123 99 189 151 208 162 9 6 49 37
90 70 40 33 83 67 95 75 13 8 47 34 77 58 82 65 208 164 245 192 144 109 562
441 573 454 7 9 18 16 23 16 5 0 43 28 85 62 41 35 83 68 94 74 10 6 44 32 76
58 84 68 213 169 232 181 8 6 58 44 110 85 52 41 173 137 270 213 97 76 187
149 201 161 14 13 32 26 40 29 8 3 52 36 98 74 45 37 112 91 147 118 36 28 97
76 136 108 39 31 82 65 97 75 15 9 71 53 124 97 137 112 157 128 183 145 54
36 704 540 756 587 20 18 39 33 43 33 3 0 67 48 141 108 75 59 148 116 164
128 16 11 53 41 82 66 30 25 72 58 95 74 23 16 96 74 164 129 68 55 130 105
139 110 8 6 49 37 90 70 40 33 93 74 116 90 23 17 58 43 76 58 53 44 188 149
234 182 23 17 58 43 76 58 117 96 169 138 205 163 23 16 97 74 164 129 68 55
133 107 146 115 39 26 112 82 210 163 52 42 96 77 99 77 8 0 120 87 217 167
48 40 90 73 94 73 3 0 40 28 81 63 42 34 90 73 109 87 34 26 92 71 229 177 44
35 98 77 120 93 37 29 183 146 320 258 33 27 109 86 168 131 145 110 255 194
296 228 18 15 53 42 76 58 23 17 77 58 121 93 43 35 98 77 122 95 24 18 88 69
142 115 55 45 102 82 106 82 3 0 40 28 81 63 42 34 95 76 118 92 23 17 58 43
76 58 35 29 99 79 171 135 24 18 67 52 97 75 29 23 66 51 81 62 15 11 63 48
106 82 43 34 97 76 119 93 22 17 72 57 110 88 39 31 110 86 158 122 48 36 132
102 187 148 55 45 102 82 106 82 3 0 40 28 81 63 42 34 90 73 108 87 18 14 66
51 107 82 40 32 108 84 150 117 l77 59 -108 40 c-457 171 -1059 302 -1689 367
-425 44 -1213 58 -1702 29z"/>
<path d="M13888 12533 c-20 -15 -67 -50 -104 -78 -37 -27 -83 -64 -103 -81
-20 -17 -65 -50 -101 -74 -36 -23 -78 -55 -95 -70 -16 -15 -129 -102 -250
-193 -121 -91 -258 -195 -305 -231 -47 -37 -112 -87 -145 -112 -33 -24 -74
-56 -92 -70 -18 -14 -61 -47 -97 -72 -35 -26 -94 -69 -130 -97 -36 -27 -108
-81 -159 -120 -51 -38 -139 -106 -194 -150 -55 -44 -149 -116 -207 -160 -58
-44 -129 -98 -158 -120 -198 -152 -456 -349 -803 -610 -280 -210 -424 -321
-620 -475 -125 -98 -203 -158 -256 -195 -54 -38 -374 -280 -649 -491 -69 -52
-141 -108 -160 -122 -20 -15 -56 -44 -80 -64 -41 -35 -226 -175 -340 -258 -27
-19 -92 -69 -147 -110 -54 -42 -154 -118 -223 -169 -69 -52 -145 -110 -170
-129 -25 -19 -150 -113 -278 -209 -129 -96 -250 -189 -270 -207 -21 -18 -68
-55 -107 -81 -38 -27 -106 -79 -150 -115 -44 -36 -111 -88 -148 -115 -64 -47
-141 -105 -219 -166 -18 -14 -85 -64 -148 -111 -63 -47 -145 -109 -181 -139
-37 -30 -144 -112 -239 -184 -94 -71 -215 -164 -269 -205 -54 -41 -135 -102
-180 -134 -44 -33 -79 -61 -77 -64 8 -7 501 159 601 203 22 9 60 23 85 30 25
7 79 27 120 44 98 39 316 127 405 162 67 26 256 109 341 149 22 11 43 20 47
20 7 0 280 122 392 175 39 18 131 61 205 96 181 83 547 264 750 371 242 128
286 152 312 170 15 10 45 25 68 33 23 8 53 23 68 34 15 10 43 26 62 35 19 8
69 35 110 58 42 24 136 76 210 117 74 41 218 122 320 181 102 59 224 128 272
154 48 25 90 51 94 57 3 6 23 19 43 28 20 9 56 29 80 45 24 15 65 39 90 52 25
14 52 31 61 39 8 8 51 33 95 56 44 22 87 47 95 54 8 7 42 28 75 46 33 18 76
45 95 60 33 26 58 41 160 97 48 26 93 54 230 144 47 30 128 81 180 113 112 70
366 232 430 275 25 17 95 62 155 101 181 117 414 271 875 579 36 24 85 57 110
73 64 43 194 132 270 186 36 25 73 51 82 56 9 6 58 39 108 75 51 36 109 76
130 90 39 26 158 110 222 158 20 15 89 63 152 107 l114 80 6 95 c4 52 11 133
16 180 21 197 -30 494 -111 651 -16 31 -29 63 -29 71 0 15 -58 111 -127 207
-21 30 -69 88 -108 129 l-70 74 -37 -29z"/>
</g>
</svg>
